<mxfile host="app.diagrams.net" modified="2023-12-06T01:42:01.163Z" agent="Mozilla/5.0 (Windows NT 10.0; Win64; x64) AppleWebKit/537.36 (KHTML, like Gecko) Chrome/117.0.0.0 Safari/537.36" etag="96tIkUy6poJUJ9KEs5VH" version="21.7.2" type="device">
  <diagram name="Page-1" id="0-hEHkG8KAYjeuigcjYJ">
    <mxGraphModel dx="794" dy="456" grid="1" gridSize="10" guides="1" tooltips="1" connect="1" arrows="1" fold="1" page="1" pageScale="1" pageWidth="827" pageHeight="1169" math="0" shadow="0">
      <root>
        <mxCell id="0" />
        <mxCell id="1" parent="0" />
        <mxCell id="ttOPPSG2qgdrhKRzDOoN-1" value="" style="shape=image;verticalLabelPosition=bottom;labelBackgroundColor=default;verticalAlign=top;aspect=fixed;imageAspect=0;image=data:image/png,iVBORw0KGgoAAAANSUhEUgAAAqwAAAILCAYAAAAt285mAAAAAXNSR0IArs4c6QAAAARnQU1BAACxjwv8YQUAAAAJcEhZcwAAFiUAABYlAUlSJPAAAG09SURBVHhe7d0JfJTXfS7+Zzbt+y4BWpCEFsBgMGAwZvXCamyItyRttjZu0vQ2N2n/Tdt7e3vb2942bdImvamTpk6axY4dG/CCwRizm93si4SQkEBIaN/32f5zzpyBAUugZUZ635nnm8985pz3fYNt9DLzcN5zfsfgdAHRIDq7uhAdFaV6RPrDe5j0jPcv6Z0v72GjeiciIiIi0iQGViIiIiLSNAZWIiIiItI0BlYiIiIi0jQGViIiIiLSNAZWIiIiItI0BlYiIiIi0jQGViIiIiLSNAZWIiIiItI0BlYiIiIi0jQGViIiIiLSNAZWIiIiItI0BlYiIiIi0jQGViIiIiLSNAZWIiIiItI0BlYiIiIi0jQGViIiIiLSNAZWIiIiItI0BlYiIiIi0jQGViIiIiLSNAZWIiIiItI0BlYiIiIi0jQGViIiIiLSNAZWIiIiItI0BlYiIiIi0jQGViIiIiLSNAZWIiIiItI0BlYiIiIi0jQGViIiIiLSNENHZ6dTtYnu0NXdjajISNUj0h/ew6RngXT/dnR0ISYmSvU+LeW176Phs99SPQoUvryHDU4X1Sa6Q2dXF6Kjhv6AIdI63sOkZ4F0/548dQ4HDx3H1JxM1ysLOdlTEBkZoc4C4f/xN+j96l+pHgUKX97DnBJAREREfjV3zgN4duM6xMfFusLrWfzT917Gjp171Vmi+9PtCOu55nrsuF6meuQP/QMDCA0JUT0i/eE9THoW6Pdvb0sHwhNiZPuvT+zlCGsA8uUIq66nBLxefl61yB/6+voQFhamekT6w3uY9CyQ719rTx8sEbf/2760ZysDawDilAAiIiLSHWt3L6o/Pou605fVEaLhYWAlIiIiv2s4X4HSLftgiQzFlEUPyGNNJVXobe2QbaJ7YWAlIiIiv7H3W3H53QPobW5D/vrFSHuwEDAY5Lnu+hb0tTCw0v0xsBIREZHfmEItSJs1DVnL5iIsLloddeuqa0JUWqLqEQ2NgZWIiIj8KjYrTbVu621uhzksBJbIcHXk0zoXPKFaFOwYWImIiMgn2iprVev+um42ISo9SfWI7o1lrWhILAlEesd7mPRMT/evGC29efoy7H0DSHuwANGTktWZoTWcK8efNX36e1yUtxpsZDX62IeqRXrBslZEREQ04Rw2G2pPXELFziOIcYXU/HWLhxVWhZQH8lSL6P4YWImIiGhUuhvaXKHVjsJNK5BUlKOOEvkeAysRERGNSnRGEiYvnAlzKLdAJv9iYCUiIqL7sg9YVYto/DGwEhER0T01XrqKutNlqkc0/hhYiYiIaFCdNxpxZdvH6LrZjIT8yeoo0fhjYCUiIgpgX9qzVbWGz9rdh+sHTqPm+AUkT5+KnJXzEJ4Qq86O3mj+XYgEBlYiIiK6gyUyDGEJMSjcuBxxORnqKNHEYWAlIiKiT0mZkataRBOPgZWIiCiI9bV2qhaRdjGwEhERBaG1n/s26k6W4sq2g2ipqFFHfYNzVcnXGFiJiIiCTEt5tXy39g+gcNNKJOROkn0irWJgJSIiCiId1fVouXJdtqcsegCWiFDZJtIyBlYiIqIAJB7Lex7Ne7df/M538ce/3iLbYlqAeBFpHQMrEREREWkaAysRERH51VCjvUTDxcBKREQUQMQuVdWHzqre+BppMP35imfkS+j96l/JF9FgGFiJiIgCRMOFCpRs2QtLuLYWUnkHU+/2aHUueEK1KFgwsBIREQUIp9WOaesfRdqcQnWEhsLQqy8MrERERAEi9cFpCIuLUj2iwMHASkRERESaxsBKRESkI61Xa1C6ZS/ar99UR4gCHwMrERGRDvQ2t6Pyo+NoulSJSQtmIDYzXZ0JHmLeqWfuqXebAh8DKxERkca1VdaiYucRRGUkI3/dYkRPSlZnAlP0sQ/l6+42BS8GViIiIo2Ly8lA4cYVSC7OUUeIggsDKxERkQ6Yw0JUiyj4MLASERFphK23H/XnylUv8Ix1w4DRCP+Pv1Et0jMGViIiIg0Qi6lKtuyDY8AKh92hjtJoiaDqCavebS7c0icGViIiognUWdOIK9s+RmdtE/JWL0T6Q0Uwmvj1PBKeQOr9osDCPxFEREQTqLO2EcnTpyLnsXkIT4hRR0kYS3WA3q/+lXzd3SZ9YmAlIiKaQBnzimUVACIaGgMrERERSWs/923VGl8TsRiL9IWBlYiIyM/6WjtRtfcTOV+ViEaOgZWIiMhPnE4nbp4qxZX3DyIiOT7gdqj60p6tqkXkXwysREREftBSUYOSzXth6+mXu1SlzMhVZ4hopBhYiYiI/CAhdxIyH5mFKYtnwRIRpo4S0WgwsBIREflJVHqiapEviDJXd78ElrAKfAysREREY9R8+Zpq6ZOoDuCpEODdHoqYu+qZv+rdJvIXBlYiIqJR6rrZjPLth9F+rQ72/gF1VNvef/V78nV32xdEeSpPiSrvNtFYMbASERGNkLWnDzcOncP1Q2eROC0TU59YAFNoiDpLRL7GwEpERDRC9WfLYAoPQdHGZYjPm6yOkgdHVsnXGFiJiIhGKHXWNKTPKYTBGBxfo5yjShONgZWIiGiEWKaKaHwxsBIREQ2h7kwZuhtaVI+IJoqho7PTqdq6s7mqRLXIH/oGBhAWwkUEpF+8h2m0Oq/Xoen8VYQlxiJx5lSERIarM+NnpPfv1w7vwMuLVqueu3837/ObvvKX2PzK391q381zThjprz0am7KLVGv0Ul77Pho++y3Vc/vUsZUbVcPL7i2qQb7U1d2NqMhI1Rsbg1NsdKxTr5efVy3yh76+PoSF8bEX6RfvYRqp3uYO1J2+DFtfP9IeLJjQvf9Hev+Keabei50Gm3c61GKowequepe7GsuvPVwv5M1UrdEL/4+/+dSmAXcf61zwhGrd5tmAgHyrs6sL0VFRqjc2nBJARESkhCfGIDojCfnrFk9oWCWiOzGwEhEReUkqzlEtItIKBlYiIgpK3fWtqkVEWsfASkREQcXWN4CaI+dxbf9JOO12dZRoYg02t5ZuY2AlIqKg0XipEqVb9sBgMaNw43IYTCZ1hgYjFld5Flh5t4nGGwMrEREFhWv7T6GrthFTn1yIjIeKYDQzrI6WqAjgqQrg3SbyFwZWIiIKCulzCpDz2HxEJMaqI0TjT5TZopFjYCUioqAQEu2bAuZEoyGCqieserfF3FXP/FXvNt2JgZWIiAJK+/Wb6G3tUD0iCgQMrEREFBD62jpRtfck6k9fwUBnjzoa+Lgw6t7u3vlqKJ7RTe+XFozk30Mr/87+wMBKRET65gRunirFlXcPIjI5DtM2LEFsZpo6Gbw8i6G8X+TehtWzFat3m7SNgZWIiPTNANh6+lG4aQWSZ+Sqg0QUSBhYiYhI96YsngVLZJjqEQUmz2It75fgPYXBu60XzgErHFXXYb9cDvuFEthPnYP92EnYDx6Fbe/H8sXASkREumEfsKkWEemd49oNWN/ejv5/+AEGXnkV1l+/Cesbb8O69X1Yt30I64d7YdtzUL4YWImISBeaLl9D+baPVY+0gPNi/Ufvo6ZDcXZ2wXbgCPr/5ccY+M9fwX7yLGC1qrNDY2AlIiJN67rZhPIdh9B+rQ6TH52ljhIFhmBZBGa/eBnWX/0W/d/9N9h27YOzpdV9IjwMpgVzEfLFFxH6h19B6P/3Rwj72z//1IuBlYiINKv68DlUHzqLxPws5D6xAJHJ8eoMEWleQxNs2z9C39//C6yvb4G9rEKdAIx5ObA8/zTC/uK/w7LuCRhzs2FIS4EhOkpdcScGViIi0qykomwUbVqB+LzJ6ggRaZmzrgG2Q8fkaCp++ivYjpwAevvkOUNcLMwrlyD0T7+BkC+8ANOMInl8OBhYiYhIs8LjY1zfcgbVI7q34W4SIPj70btnBX8wcJRVyEVS/d/7d/T/6BXYPthzezTVbIZpzgMI+b3PI/TbX4d52SMwxES7z40AAysREU24/o5u+SIi/XBcLJWLpyL3vSrLUDnb2tUZ9yN/7DmIsD//Y1ieWQtj1hR1ZnQYWImIaELVnylD6Za9aKuqVUeISMvsn5xB//dfxsDrW28vnnIx5mTBsmE1Qv/8m/KRvxQS4n4fIwZWIiKaEG2VtSjduhf9nT1ynmrqA/nqDBFpTn+/uxzVP/4Q1nd2wNnaJg/LkVQXsbo/5Mufhemh2TBEhMtjvsTASkRE485pt6Px4lVMmjcdmY/ORkh0hDpDRFoi5qJat2xD/7//3F2Oqss9dUes6g/9/d+5NZI61Op+X2FgJSKicWcwmZC/bjGiJ6eoI0TkbbD6rGJRmWdhmXfb1xwVVXIUte/vvi9X+9tPn7/16N84OUOOpIq6qREf/OzW4jJ/bxXLwEpEREQ0SneHMe/g5t2+H39XLbgfEUjFVqiisP/Af/1GzlNFX7/7pMUiH/XLEdWXviDnqvra/X6fGFiJiMhvuutbULHziOoRBS/PiKj3azj8GWSdAwNya9SBn/5Krva3Hzwqt071MGZPgeXpNQj9zh/LxVSGzMnqzPhjYCUiIp+z9Q/gxtHzuLb/FOKyM9RRIppoovSUCKlyNPUffgDr29vhuH5DnVXF/Zc9gtBvfQ0hX/k8THNnwRBiUWfHn2cEm4GViIh8qqmkEiWb98JkMqFg4zIkFvj+8SERDY8YMbWfvQjr1u3o//6/y+L+IqSK0VRYbfIaQ3wsTI8+jJCvfcld3H/lEtexOHnO34aaQuE991W8M7ASEZFPhSfEIu/Jh5E+rxgms1kdJdK3+82x1Brrux+g/19/LOekWt96F/ZTZ+FsvV3YXzzeNy9dJOekhn7r67A8sRzGjDR1VnsYWImIyKciUxMQnhirekTkL872jttboN7FfuI0nM1eRf0np8O8ZKEsQxX6P/9ELqAyP7ZUrvrXAwZWIiIaNVuvWkVMRH4nAqht9wHZ7v/b76H/n38ky04NxpieCtOi+Qj5necQ9j+/jZCXvgjz48tkof+JnJM6WgysREQ0Yu3X6nD5nf2oO3NZHSEif5Ahdd8h9P/wp/IRv2jL4wMD8n0oIV//MiyrV8I4Lddn26NOJAZWIiIatr62TlTt/QR1Z8uQNrsAkxc+oM4QkS+Jlfz9P3rFHVJ3H4Czscl9wuKeF26a/6AsOSWCaTBgYCUiomGx9w+gfPthRCTFoeCpJYjN0u4CDSJfGe4qdk97rBw3ajHw7z+TK/mddQ3qqCugFhfA8pmnEPYX/132LetXyZJT4tF/MGBgJSKiYTGFhqBgwxKkzMxTR4jIZ3p75XaoAz/5BRw3693HIiPkKGrYX/0JLC9uhGnWdMCHlTfGu/KBJ/B7v4aLgZWIiIbNEhmuWhRI3n/1e/J1d/vnK56Rr7vb5Fu2YyfR9/2X3duhuohFUaIWati3/1COooqtUceTr0aLh8N716977QDGwEpERHewW62oOX5R9SiYeIIqjQ/7pcvo/8FPYNv24a19+83z58i6qGK3Kc98VWJgJSIiL82Xq1C6eS/gdMLeb1VHKdhxZNW3nLV1GHjlVVh/swXOphZ5zFiQh9A/fgnm9U/KqQBaNJJH+L7GwEpEROiqa5YLqtqr6pCzch4mLZgBU6j+ajUSaZko9G998x30//i/4Ki6Lo8ZEuJlMf+Qzz8LQ1KCPEafxsBKRERw2h1ImDYFU598GBHJ8eooEfnEwABsu/bJBVX2c5fkEwzxuN/8+FKE/vc/kMX86d4YWImICNGTkpGQN0X1SAu+dniHapHe9X/v32E7cATOzi7ZN00vQOg3/wDmJYtkf7x5r9D3bvurVJcvMLASEQUZh82mWkQ0Hpw9vfLdkDkZIV/5PCwvbIQhJloeG42hVtIHMgZWIqIg0d/RjesHTqPudJk6QkQe0cc+lK+728Mtu3QvxskZCPniiwj9/d+BMXv8n2SM92KpW79/u7f47PeSgZWIKAiIrVRLt+xFaGwUMuYVq6OkJ1/as/VTL/I9T7gajf7v/7tq3SnkpS/AmJutejSY+4VXBlYiogBm7erBZVdQ7W/rQuGm5Uidla/OUKDwFPT3fpH/iWAb9dEWhH3nm7A8sVy+nK3taK22oK01Dl0Prh/xKKJWDTXn1Z+8R2bFOwMrEVEAs0RFIGP+dGQtnYPQ6Eh1lIhGyjt4Oi5dxsDPXkP/d/8N9lNn1VH3o3/LxnUI/bP/BtO8B9XRiePvoOkdyP0dzg1OF9XWndfLz6sW+UNfXx/CwsJUj0h/eA+TnolH/t6jpYNNAQik0dQX8maqljaJhVNi61T7sZNwdnSqo26mOQ/AvPAhGNJS1ZGJIVb1DzalQQTVwcLkUMeHMtJfp7OrC9FRUap320j+uZ7/pluB9d9/8kt5wtvXX/pd1bqTVq9NWDn432Zadp9Wrdt4rRuvdeO1brzWTa/XtpRX31GaKpD+2+4WjNcOFli/5/z0vEg9/rcJdwdWrWaNL9+oke9ilb9pwVyY5812JbBwzf77imsHC4i+/Hfw/vWH8+t6rh/OtZ8KrHrEEVb/4ugU6V2w3MPdDa2oO3MZsDuQNqcAkamJ6gzpGUdYJ54YUbXu3HNrn3/BmJMlR1ONRdPUEe0I5BFWzmElItIpe/8Aao5dQNXeTxCXnY7c1YsYVol8wNncioH//DWs7+y4FVZNi+Yj5L/9PkK+/FlNhtVAx8BKRKRTXfXNMBiMKNy4HInTstRRIhoL275D6P/XH8NxrVr2RbH/0P/2VVhWr4QxOUkeo/HHwEpEpFOxmenImF8Mk8WsjhDRaDlr69D/w/+AbfcB2TeEhMDy1CpZ7N+QzCcXE42BlYiIiIKW0+GAbc9BDPzkF3A2NstjpuIChHzzJU2UphqJweavBgoGViIijas/X456bqcaNMTiKs8CK+82+Z6zoQnWH/8XbHs/lsFVjqpuXAfLixthiP70YqFAM5IFV/cy0l9nNP9cQ0dnp26rBGyuKlEt8oe+gQGEuf7wEumV3u/hrppGNJ2rQEhMJBJnTkWo650Gt+krf4nNr/yd6unb1w7vUK3bXl60WrXc5737gWJTdpFqjQNRIOnIJ8CBI4Dd7j6WNQV42vX7GsU/Z0NJee37aPjst1Tv/rq6u12/nb75/WRZKxoSy1qR3un1Hu5r70TdqTL0d3Qh/cECxGSmqTM0lLWf+zbef/V7qqdv9ytfJc4HUjkrj/Eqa+Xs7IL11bfgqLnpPmA2ywVVpvlz3H0a0kjLYA1V1mo0OCWAiEhjwmKjEZ4Ui4INSxlWiXzIeaMWAz965VZYFVupigoADKvax8BKRKRBqTPzVIuIfMF+5jwGfvorOLt7ZN80eyYsogJAfKzsk7YxsBIRTaDepjbVIiJ/sb73Aaybt8mFVYJl/SpYNq2DwcgYpBf8SRERTQC71Yba45dQ/uFRdFTXq6NE5EvOrm70//RXsB8/7T4QGYGQ3/8dmObrq1wVMbASEY275rJrKN2yF06nA8WfWYmYKanqDNH9BeKCK39wNrVg4Mf/Bef1G7JvnJSO0D/8CoyZk2Wf9IWBlYhoHLWU30Bb1U1kL5+LSQtmwBRiUWeIyFccrpDa/xNXWG3vkH3TrBkI+YMvBkVt1UDFwEpENI4S8iYj94mHEZmSoI4QkS85Ssrk4ir09cu+edkjsHxmvWyTfjGwEhERUUCwHTuJgdc2qx5cQfUpmFcuUT3SMwZWIiI/6LzRgIYLFapHRP5m+3AvbNvUXvrh4e7FVbOmu/ukewysREQ+1N/ZjesHTqP2+EWERIaro0TkT9bN78F28KhsG5ITEfq1L3JxlR+MZJcrX2NgJSLykfqzV3B5yz6ExEaiYONyxOVkqDNE5C/W17fAfuaCbBtzshDy1S/AEB8n+xQ4GFiJiHzE1jeAgmeWIW3WNHWEiPzGasXAz16D/eJl2TUVFyDky5+FISxU9imwMLASEfnIpAXTERoTqXpE5Dd9/bISgKPymuwaZxbB8gLr0wYyBlYiohFy2N3bOxLRBOjuQf9PfwnHTfcOcaYFcxHy3NOAwSD7FJgYWImIRqClvFruUtVZ26SOENF4cba1o/8nv4Czwf3nT5Sssqx7QrYpsDGwEhENQ09jK67uPIqWsmpkPjob0RlJ6gwRjQdHbR0GXv45nK1tsm9Z+7jcFICCAwMrEdF9NJdeQ+XuTxCbnYa8NYsQlZaozhDReHCUV2LgP38NZ0+v7Iudq0wPPyTbFBwYWImI7iOxMAtFm5YhsSBbHSGi8WI/fR4Dv3hdVgWAxYyQL7wA06wZ6iwFC4PTRbV15/Xy86pF/tDX14ewsDDVI9If3sOB40t7tqrWbT9f8QzWfu7bqnfb+69+T7X0aaj/1kD3Qt5M1brNtu8QbLsPyLYhIhwWV1g1ZqTJPmlfZ1cXoqOiVG9sOMJKRKRYu3vl438imnjWd3bcDqsJ8Qj52pcYVoMYAysRkUvD+XK5+t/a2wvo98ETkf45nBj47duwf3JGdg1pqQj56u/CEBcr+xScGFiJKKi1X6/H5XcPoLe5HfnrH0Xag4Ws50g0gayusOo4XyLbxtxshPz+78AQGSH7FLwYWIkoqHVU1yN1Vj6yls1FWFy0OkpE487hgPXXb8J+sVR2jXk5sHz+WRhCLLJPwY2BlYiC2pRHHkBcVrrqUaAZbFEWadPAq2/Bfrlcto2F+bIagMFsln0iBlYiIiKaMEabHXlvfwRHWYXsm6YXIuRzn5FtIg8GViIKeGJ+6tWPjqOnyb1DDgU+MbLqGV31bpO2GG025L63G9E36mTfNLMYlhcCv4QXjRwDKxEFLKfry7D2xCVU7DyKmEnJiEiKU2coUIiaq566q95t0oesDw8hqqZBtk2zZ8Dy3AbZJrobAysRBaTmy9dwddthOGx2FG5agaSiHHWGaPDi/DS+0o+fQ9zVatlunjkNlk3rZZtoMAysRBSQEguykLH4AUxeOBPmUK4yJtISEVTTXIFV6M5IRvWj82SbaCgMrEQUsMI5BYBIc8Ja2+VUAGEgOgpX1y6H08jax3RvDKxEpHst5TdUi4i0zNhvRe57e+ViK6fFgop1y2ALDVFniYbGwEpEE2asK7c7bjSgbNvHaL9WCye3Uw1qXGylD1M/OICQji7ZrnriEfQl8ikIDQ8DKxHpzkBnD64fPIPaExeRXDwVOSvnw8DtVIk0bfLHJxFdfVO2by54AG05k2WbaDgYWIlId26eKkVodAQKn1mO+KkZ6ijR/YnqAJ4KAd5tT61W7xf5TmJJBZLPlMh2e24m6uY9INtEw8XASkS6k/ZgAVJnT1M9ItKyqJo6ZO4+Itu9iXGoenyRbBONBAMrEelOaEykahGRloV0diNnxwHZtoWH4er65XCYzbJPNBIMrESkSU6HA3UnS9HX5l6gQUT6IioC5L3zEcx9A3CaTbIiwEAU/7JJo8PASkSa01JejdIte2HtH4AphEX/ifRIVAQIbeuU7esrF6EnNUm2iUaDgZWINKO7sRUVHx5Dy5XrmLJ4FqYsegCWiFB1loj0Ysq+Y7cqAtQtmIWW/CzZJhotBlYi0ozI5HjEZqUhb/UjiErjaAyRHiVcrkTShSuy3ZafjZvzZso20VgwsBKRpiQVcCSGxk5sJODZTMC7/fMVz8jX3W3yjbiK68ja5d52tTc1EZVPLpZtorFiYCUiv/HUufR+Cd51LlnzkigwxLrCqqcigD0kBFdXLZFtIl9gYCWicWXt7lMtouBy91/MhvoLnR7FXK/F1J0fy7bTYsGVZx7DQDQrApDvMLAS0bgq2bJXtYgC01iDp2eqwsuLVuti2oIMq+/vBxwOGVbLnl6J3uQEdZbINxhYiWhcTVv/qGoRkd5F36iXYdVgt7vCqlmGVZavIn9gYCWicRUWF6VaRKRnEY0tyN2251ZYvfIUwyr5DwMrEREFHVYHGJu4q9WYtuVDGGx2OCwmlK9bhu70ZHWWyPcYWInIp9oqa2Ht6lE9Igo0qScvImf7fhisNlkNoGLdcnRNSlNnifyDgZWIfKKnuR2Vu0+g8eJV9LV3q6NEE8tTf3U8eK/0924HShk3g8OJrI8OI+PIadm3RkWg7LlVDKs0LhhYiWhMHDY7ak9cQsUHRxCVkYT8dYsRPYmPBokCibHfivy3P0RC6VXZ70uIxeVnV6MvLkb2ifyNgZWIxsgpQ2vRphVILspRxygYjLV8E+mDqa8fhb/djsjaRtnvmpSKss+sgjUyXPaJxgMDKxGNidFsxuSFM2EOC1FHiAan10fhwUzUWC3+9TsIbe+U/db8LFx55nHYQyyyTzReGFiJaNhsff2qRTQ0jrwGhvQjp5H77h6Y+wZkv2HudFQ9yTrKNDEYWIloWJouVcpFVUR023BGjcXCL8/iL++29y5WWtrRytzbh/ytu5B28qLsOywWXF27DDULH5R9oolg6OjsdKq27myuKlEt8oe+gQGEhfAxb7DrvtmMpvMVMIWFIGlmLsLio9WZ+/va4R2qdZvYbnLTV/5S9W7b/MrfqZbv8B72L/HzFT9PD3/+vIf6tX1ltP+O4v/nue5+/47e13q7+/fRYyLu3+i6JuTvOuQKre6nKT0Jcbiy6hH0R0XKvj9tyi5SLQoUXd3diIr0zb1jcLqotu68Xn5etcgf+vr6EBYWpnoUjK4fPIOexlakPViAuJwMdXT4Bns0LEaRBhuV8nX5IfHPFiGA97D/iN9j71HBkfy8B3Ove2CoX9tXRntPiv+f57r7/Tt6X+vt7t9Hj/H+DE6+UIbJ+46rHtA0Ix/Vyxaonv+9kDdTtShQdHZ1ITrKN7sbckoAEQ0pMX8KCjcuH1VYJfIQIc0T1LzbpA3hzW0oePODW2HVaTbh2uOPjGtYJbofBlYiGlJkWqJqEQW3wUZPA4HYBKDwN9sQUd8k+x2Z6Sh5cR1aCliijrSFgZWI0NfaCVu/eyUwkb8E+8iqlv77o2rqMP2Xb8ttVgV7eCiqHn8EFU+tRH/s8OepE40XBlaiICamsN88VYqybR+jpfyGOkpEHmJk1TO66t0W81E9816921pntFrl9qr5Wz9CSEeXPNZSOBUXP/cUWjmqShrGwEoUpFoqalCyeS9svf0o2rQcKdOnqjNEFIgiGltQ9Jv3b22vOhAThfINj+HaY4tgDwuVx4i0ioGVKAiJkNpSdg2Zj8zCFNfLEjGylciBOp+Pgpf3YjDvtli971nB793WFacTKacvYdqbH9waVW2bOgUlz69F55Q02SfSOgZWoiBkDg9F3upFiErnoiqi0Rgs4HoCrfdropl7+pD/zm5MOnQKBocDTosZ11c8jMo1S+EI5faqpB8MrERERAEo5notil57D1E36mS/NykBpc+vQXNxnuwT6QkDK1EA67rZjIqdR1SPiIJFYkkFct/dA3Ofe8eqhtlFKH1hDfriYmSfSG8YWIkCkLWnD9WHzrleZ5GQO0UdJaJgkHbiPDJ3u/+iKspVXdn4BGoWz5V9Ir1iYCUKMA0XKlC6ZY+cp1q4cRni8yarM/7HxVjBwbu8k3c7kA01H9Uzj1UTnE5k7jmK9GNnZdcaHYnLn1mFrowU2SfSMwZWogATHheN/LWPIn1OAQxG/hEfLr3U0dQy74VGWll0pAe++H0y2u3Ie38fEi+Vy74o/i/CKjcBoEDBbzOiABM9OQVh8fySIgoW5v4BTHWF1eiqGtnvTU5A2XOrYI0Ml32iQMDASqRjTrtdtYjIFzT1iH8Yom42yEoA0ddvyn5XegqubHwctlBuBECBhYGVSIdar9aidMte1J0uU0eCGx/nBw7PNqfeLxpcxtEzyN/8IczdvbLfUpyLig0rYbewvioFHgZWIh3pbe5A5e4TaLp0FRnzpyP9oSJ1ZmIF4yIcGtpw5mR6iu17v2h4Qjq6UfDWTqR+ckH27SEhuLp6Ca6tWAiH2SSPEQUaBlYinRjo7EbFB0cQnZ6E/HWLETNZ+yt/vRfeeLeJaOSMNrvcYlVMAYioa5THRAWA0s+uRXtupuwTBSoGViKdCImOROGm5UgqzlFHiChYJJaUY/qv3pZbrBptNnns5oJZssbqQFSk7BMFMgZWIh0xh4WoFhEFg9hrNSh6bRsydx+9NVe1LzEOZc+uQt28mbJPFAwYWIk0xtY3gJoj51UvOPlzoQ3n15IeWLp7UPTePkx9by/CWtrksV5XUK1cvQQlL65Dd2qSPEYULBhYiTSk8VKl3KXKYDHDYXOoo9rBxVVE/iXKVOW+uxszfr4F0a620JcQhypXUC11BdU2zlWlIMXASqQBnTWNKNt2EF21jch9ciEyHiqC0ayfP57jtbhqLAF5qLDtXTqJZZRoosRW1aDgzQ9kmaoYVVO1Ny4GVU8sRsln16GVQZWCHAMrkQY4rFYkF09FzmPzEZ4Yq44SBR/vElfebc9fhLxfembp7kXC5Upk7TmC4l+/g6nb9iKivkme60lJQOXaZTj/3Cq0TsuWx4iCHQMrkQbEZmcgfuok1SMivdRlDe3oQlRNnVzFn37sLLJ3HULe2x8hZ8cBZO4/jvQT55F0/jLiK64j/koVpuw7JgPqjJ9vRpbr2oRLFQht65S/VkfOZFzZ9AQuP7cGba42Ed3GwEpERDSIsLYOxF2tRtonFzD5wAnk7Dwow2j+1l3yNf2Xb6PY9crf+pFcxZ/mCqfxlysRfaMOca6Amni+DGmuEDtl/wlkuwJs9s6PkXThyq2A6tHuCqeln12PirXL5NaqRPRpDKxE46TP9SVVtfck6s4G7naqen9MS8Er6mYjUk9elCOkhW9sx4P/79co+vW7yNm+H+lHzyD53GXEXbkmw2hUTb18hXR0qf/38PUmxaO5OA83ls1H6fNrcPobn8dVV1DtTeBUIKJ7YWAl8jcncPNUKcre+xiRyXFImzVNndC+sSxyChRchBWYxHzR1JMXkPfubsz+yevI37wTGUdOyxHS8MYWddVtDosF/bHRcgRUPLoXoVPUQa1etgAVT61AyeefkuHzfq/SF9bi+oqH0ThjGnqTE9SvTkT3w8BK5Ee9rR0oeWs3bD39KNq0HMkzctUZIhpvYqGTeLQ/6ye/kSvyM46cQfT1mzBY3TtH2cND0Z6XiboFs2S900ufW38raJ596Xlc+p0Nco6peHQvQqfYaappRj46MjPQFxcjfw0i8g8GViI/Co+PwZTFs+TLEhGmjhLReApt70TmnqNyzql4tG+02uVxGVBzM3Fj6Tw5h/TcV57F1VVLcHPeTFnvtD+ej+mJtIKBlcjPotK5Iw3RRAjp6Ebu+/tQ/Kt3kHipHAa7O6iKUdSyz6xyB9TVS9A4s4BzSIk0joGVyEeaL19TLZpI3psCfO3wDs7DDTLhTa2yvJQoHTX9l1sRU3lDHrdFhMs5pxe+tEmOonan8S+SRHrCwEo0Rl03m1C+4xDartWhp9G95zeNzlC7TnmHUO/2UNcPxrvYvD8Lz9/r34H8I7S1HenHz6HotW0ofP19WV7KUzqqPz4GVU8uxvkvb5JzTq2R4fI4EekLAyvRKFl7+lB9+ByqD51FQn4mcp9YgIjkOHVW34YKiL7i2cHI+0X3xzB8J1Nfv5ybWvzqe0hzBdawltt/YRRzU8XCKbEqvzWfu0UR6R0DK9EoddY0wBIagsKNy5GQN0UdDWyjHaX012jmRGJ4nEBOp9w9Sjz2F3NTJbNJFuAXe++feekFOTdVLJxymEzu80SkawysRKMkRlXT5hbCYOQfI1/xHm31bo82KFPgibzZKAv7i92jzH0D8lhHVgYuPb9GFuAXe+87LWZ5nIgCB79piYIMRwZppHw9JWQ0RA3V7F2HMW3zTrmwSuhLiEX5hsdQsX4FS1ARBTgGVqL7qD9ThsaLV1WPtGSwEVnvEdiXF60OitFYLQRKv3E4kXqmBEWvvof4y+4/h9aoCFx7/BGUvLgOnVPS5DEiCmwMrERDaKusRenWvejv7EFsJr8UicZb9I16FL/+PjI+PgnTgPvxv1jpL3acainIAQwGeYyIAh8DK9FdelvaUbXnBBouXsWkeTOQ+ehshERHqLNE5C9ii1Sxx39iSTlyt+1F3tu7EKpW/otV/xe/+IyspcqFVETBh4GV6C7hCbGITEvEtHWLET05WR0lChxamcds7Lci9eRFuRuV2DZ19k9el3v8Z+4+ipiqGnmNqKNa8dRKuep/ICpSHiOi4MPASjSI5OKpqjX+Ano+Io0rLd5LYc1tSDl9Cflbd2HWT99AxpHTcjeqkI4udYWbw2LCzUVzcOlzT6EjM10dJaJgxcBKQa27vkW1SM88C698SYxCekYivdt6IIKqJ6x6t0f63zTUrzNSUTV1mHTwEzmKWvSbbZh06JTrWL06CwzERMkaqvVzZ8jFVKXPr8HZl15E3ZxidQURBTsGVgpKtr4B3Dh6HlX7TqKrrlkdpWDkqS7g/aJ7867E4N32JuqlTv74E8x85S3kb/0IKWdLb42iOs0mdGRPwo2l83DhSxtx8XefljVUaxfOloupepMT5HVERB4MrDqmpxEfLWkqqUTJlj0wmUwo3LQcUWmJ6kzwGu3Imb9oOTSOdJQymIQ3t2HSxycx82ebZb3U5DOlMPf2yXO2sBA0zczH1XXLce73nkOF671xZgGskVzQSET3x8BKQUWE1Y6aRuQ9uRDp84phMnNHnGAz3Lqs3qOtHHkdnPi9NPVb5TapBb/djsLfbEPKmRKYe3rleRFSm4vy5KKpC19+FtVLF6A9exIcZq7yJ6KRYWCloJJUlIOpj81HeCJ3xSEaCzGamr3zIB746Rtym9SIBvd8cLFYqjU/S46gnv+953B95cNy0ZTTyJqpRDR6DKxERDRsOSKk/sdv5Whq/JVr6ijQlZ6C6ysexvkvfwZVTz4q56gSEfkKAysFpPZrdWi+fF31iPxvIua2+moVv4fRakVoR5cs3i9W9g8mzhVSPbtO2SLDUT93utx56sqmJ9BcnAeHxSLPERH5EgMrBZS+tk5c23cS36w4AktYiDp6WzAtkNHaQqpAMV5zW0f78wttbcfm3PnYljJd9j+IzpOv9BPnZf9uoh6q5zXrJ2+g+Jdvy+L9YmX/YHqTElD/0AxcfnY1zn9pE2oXPoj+2Gh1lojIPxhYKTA4nag7VYqydw8iPClOHorJSpPvRIEk4co1JJ8tRfqxs+rInYpffQ+57+3F5H3HZT/NdZ3nNRhRD9XzGo7SF9ag9uHZ6ElldQ0iGj8MrBQYDAZYe/pQtGk5UmbkqoNE+hLW1nHHo31P23uKwcK//iHmf/enSBtixPRuDrMZ1vAwDERHqSN3Eo/xGx8okI/2xa5T4vH+ua8+j9Pf+Ly6goho4jGwUsCYsng2LJHhqhe8Bgs8gnfo8W7Tvfm7nFVIRzfSTl5E4evbUfTrd9XR+7NGDV6/9MrGx1HyufU4/5XPyP7ZP3gBF1zti194WvbvJhZK3VgyTz7aF8TjfXsI56ESkbYwsOqAJ3CQm8NqVa3gwoCpb5buXrn7U/zlShlQxZzS3G17Mf2XW5F+5DTCm0a2TfCFL25UrTt1ZaSiLz4WtvAwdYSISP8YWEdoqPDIMDE+mi9fQ8nmvehtbldHAof3aKh323s01Ls9kYZbfD/YZX10BIVvbMfsH/8GT3z1f8jdn7J3HZIBVcwpjamqUVdCloESo52+xJ8TEQUKQ0dnp1O1dWdzVYlqjZ+vHd6BlxetVr3bNn3lL7H5lb9TPd8Q/6y7iX+2+Gfdzfuf7at/l76BAYSFfHql/UToaWhF07kKGExGJM3MRXjSvQv/j+fPyVdG+/O+20h+nZSvLFat28S1Q/0aE22on+tgxLX/8tBKn9/DoV3diKusQUhPr+vVB3NfP4w2O4rf/vSq+uoFs1QLmOIKqKLvCDGjLzoKA9GRrvdI9MbHoGXqlFuP4Qf7vW945WPVuk3cAyP9OY30s0Or90Gw0NJn8HjYlF2kWhQourq7ERUZqXpjY3C6qLbuvF4+vEUHviRGvQYbtRCjXr6e6+YZYfMm/tmDjbB5/7N99e/S19eHsLCJf6xYf65cjqymPjgNiXlT1NF7G8+fk6+M9ud9t5H8OoMFVu/ft6F+HyfKSP59xLUiXPniHo662YCYqlrEVlYjrGXw0X2xYOlupZ9dj97EOFcojcWiv/l/2PGzf4Aj9N7zQwf7+Q0WWMU9MNTPeigj/ewY6a9PvqWVz+Dx8kLeTNWiQNHZ1YXoqMEXfI4UpwQEkcG+rHxpsC83X0h9IA+FG5cNO6yS7wRjOAlr7UDc1WqkfXLBFULP4IGf/hb5mz9E6skLd4TVrslpaC3IQePsolsLlu5WsXaZLAElrhPuF1Ynivhs8Hw+eLeJiLSCgXWYRBjzBDLvNj/ox4fRZFKt8TVYCOfPODCEtncirvKGDKLZH34sV+k/+P9+jaJX30XO9v1IP3pGnjP1q12dwkJlCajK1Utx9qXnceXpx1D1+CO4sXiuLAnlT2LU0zPy6d0Wf6Hw/KXCuz2UoX4dIiKtY2ANIHoPz/0d3WitvL0IxdtgwVEY6jiRN3NvH+IrrmPK/mMofHOHXARV/Kt3kPP+PjmKGl9WNegqfVG7tLkoD2WbnsT533tWLopqy50you1Hx+PPZTCOhBNRcGFg1aFAHCWpO1uG0i17MdDRo45MLO9RdE97PIIH3dtIgtmbBQuRdfgMil57DzNfeQvZOw4g6fwVhNc3w2Czq6tcf1GKj0Hb1CmomzcT11cuxJVnHsPFLzwjC+eL2qXXVz6M7vRkdfXQAvHPJRGRVjCw0oRqq6zFZVdQ7W/rkrtUpc7KV2dGZ7CgKTBsBraom41IPlOK7J0HMf0Xb8tH+2Iv/NQLZXfMOxULoMScU/Eo//ILa2QovfS5p1C5ZiluLpiF5qJcdE1Kkyv4R4tBlYjI9xhYaUK1Vd5E+vxiZC2dg5AxhISx8kWAZQj2PVFsX4TRBFFs/5MLmHLgBHJcoTTv7Y9cgXSXfM34xVbkb96JyR9/gvgr1xDS2aX+30BfXAwaZ05D5eolOP/7z6L0xXVyzqlYBNWTlKCuIiIirWNgpQmVvWIuYianqt748x5t9W7T+DL19SO2qgbpx88h993dKH71XTlKOuPnm2UYzRLF9o+eQdK5y4hzhdLoG3WIqqmXL0tnt/w1xH757TmT5UhpxVMr5X74555bhRtL56MtNxO20FB5nZ75a/TWewqDd9t7IZd3m4hovDGwThDPo+q7TURgCoaQNtQXMo2/kK5uWddUrNDP2XEA03/5Nh74zzcxddtepLkCa8z1mwht7VBX38keHore1ES052WiYU4xqpfOQ8X65XLOqdgv/+raZXIuakdmOvfDv4eh7n/+uSAirWJgJb/rbmhBxc6j6Ou4/aiWgkdkfRMy9x6TtUxn/eQNTP8v8Qj/Q7lCP67iOkLuui+sURHoyJmMxtmFuLH4IRlCS59fg3MvPY9zX3kWpc+uxtVVS1CzaA6aZhagI2vSmOacEhGR9jGwjrNgWhRk7x9AzdELqNp7EnE56QiL8c1uF3oz1Gh6oIu/UoVprmA67c0PkHjxihxVNVqt6qyb02JBZ2Y66ufOwNV1y3H+K5/BhS9ulAX3RVgVoVU85u9NToB9BKWkiIgosDCw+lmwhpWmS5Uo2bLXdYcZULhxORKnZakz5OGrv5Ro6S835p4+OQ915s83I3vnx4h0hVSPnpQEtBTmonbRnFuP8c+89DzKn1qJ2oWz0Z49Cbbw4NmGUk84d5WIJhoD6xCCNWh6+9rhHao1colF2ch9fAEmzZ8Ok8Wsjo6c9yj0cNo0NM/cXe+XLxbVGPutsvC+WKU/82dvyXmo5u5eeU482i9/+nFZPuryc2tw7bGFqJ9TzMf4REQ0IgysQcB7ioF3258MBgPCk+JUz/eGClpDtSfCUKF6In4evhba2o6U05eQv/VDzPrpG3JrU1EH1aO1YKqscyoe7XdOYBUIIiIKDAysfjJUWPEnz6jZ3W1/66iuV63gFAgB9F6MdjsibzYi9UyJXNUvap8Wv/oeJh06haia24/8+xJi5Z76l373aVQ9voh1TomIyGcYWMeZlkYAx6rjeh0uv7MfLeU31JHANlF/IRgP3vdheFMrEi+Vu/fd/+12zHr5N5i2eScyPj4pV/WL2qceonxUzZJ5cj5qyWfXo3bhg+gP0sV1RETkPwysNGJiBPHavlO4efoy0mZPQ/byueqMdgz1FwF/hMyhgqz3X0i82xPN3NuH8JZ2uWo/qkYU4K9zP97fIspO/QaFr7+PzD1H3fvuN7So/xfkgiixMOrmw7NlYf4zL70g3xseKOB81DEYj6cvRER6F/SBNZi/LMbyKDssMQYFG5YiNitdHSEtm3zgEzlaKnaPmvnKWyh87T1ZC1Xsty9e8vF+rSg7ZZfXOy1mdE1KQcPc6XJb04tffEaWnBKlp+oemiFHVsU1RERE44EjrHfxnm/q3dazoUYAhzLU74F3qP3yP7x8q32/671f5F9iF6nBJJ8rvWO01JstMhzdqUloLs5D9fKHUfrCWjl6euWZJ1Cz8EG5relAFEdQiYho4jCwDpO/H+8OFir9/c+kocO8P3/v7/fP9H4NV8qZElmkX+wiNRixz37n5DT37lHL5ss6qJc+tx5nv/Yizn9pE8qeXYXrKx5G0/Q89CbFq/8XERGRNjCwEulQRH0TUk5fRPbOg7I/6eOTdxTpv5vYZ7/86cfcu0fNmCbroPbHx8JhMqkriIiItCtoA+tQj7EDmWckz2Ookb5/njQHf9LoXun9n4+sHdFIH42Pgjc/wKRDpxF/5Zo6Ajnn9MbSeapHREQUODjCehfvR7EjfSyrV56g2l3XjIodh9F27Saylz8kj5lCQ+Q73Z/n99FXIppakH7ktOp9WobrnHh52tPe2onGmQWyT0REFEgYWDVmJKHH1wEpPCEG8XmTkfvEw4hMCa55jL7+vRwtsWgq/dhZFL/6Lgpe3460kxdlbVPxEkpeXIcTf/p7KH1+jewTEREFAwbWMRJBxxN2vNt6HKk1hliQkJ+pejTeYitvoPC195F24jxCWzvkMVE6qnVaNirWLZd9UVaqYXYRepO5i5TeBeO0JCKi0WJgDVKdtU2qRVog6qBOfX8fTAMDcFhMaMvLQuXaZbK8VNUTi9GRPUldSYFOj3/ZJSLyNwbWINPf2Y3rB06j/kyZOkL+dq/AYenuQcGbO+ROU0JPaiIufX4DKlc9iracyfIYBScGVSKi2xhYJ4g/v4yGmo9Zf/YKLm/Zh5DYSOStWaSO0kQqev19RNQ3y7Z41H950ypYIyNk/25D/VyJiIgCHQNrkCjfcRh9bZ0oeGYZ0mZNU0dpoqQfPyffTb39cFosuLp6CWoWz3X9iTTI40RERHQbA2uQSHWF1KylcxAawy02x2osI51Gux052/cjTQXW3qQElLy4Fu25XOxGREQ0FAZWHfDF9IHojCTVooli7unDtM07EXe1Wh0BSl9Yg/4Y9yYNI+VdlcK7Le6Xu19ERER6xsAaYFrKb8A+YFM90orwplYU/nY7whtaZL9hznT57gtjGfElIiLSAwbWANHT0IqrO4+i5cp19La0q6Nj8/Ki1apFYxFbVYOCzTth6epx/Ykz4Nrjj6BmkXsjACIiIro/Blads/UPoObYBVTu+QSx2enIW70IUWmJ6mzg0/rj7pSzlzF1214YrDbYQ0JwZcNKtBTkyHMcGSUiIhoeBladc9odgMGAok3LkFiQpY7SRDM4nMjcewyTDp6Q/YGYKJQ9twpdk9Jkn4iIiIaPgdXP/D0CaIkIw6T502G0WNQR8qXR/PyMViumbtuDxItXZL8nNQmlz61GX1yM7FNw8SyI834JngVx3i8iIhocA+sITeSXirW7V7VIq0I6u1Hw5k7EXL8p+53Zk3Bl4+Owh4XKPhEREY0cA6tONJwvR/Vhd+1O0qaIxhZZCSCspU32m4vzUL52GRwmk+wTERHR6DCwalz79XpcfvcAepvbkTGvWB3Vvy/t2apagSGu4joK3tgud64Sbi6YhesrHpbzi4mIiGhsGFg17Nr+U6g7XYrUWfnIWjYXYXHR6gxpSdqJ88j54KC7YzSg6vFHUDdvprtPREREY8bAqmFxORko2LAUcVnp6ghpTfauQ0g/dhZwOuGwWFCxbgVaVdkqIiIi8g0GVh/xrPz1pdhMlkDSKnP/AKZt2Yn4y5Wy3x8fI7dZ7cjkXy6IiIh8jYFVA8T8VKfTqXqkdWFtHXK+amRto+yLkFr6/Br0x3LKBhERkT8wsE4gh82G2hOXULHzCJpLq9RR0rLwxhZM++0HCOnokv36h2ag4qmVcJjNsk9ERES+x8A6QZovX0Pp5r2u0GpH4aaVSCrivEetE4urCkUlgIEBOC1mVK5ZitqHZ6uzRERE5C9BE1hHWkbJnxsE9HV0o62qFlnL52Lywpkwh3KXKi0z9luRt22ve3GVi9hmteS51WibOkX2iYiIyL84wjoBwmIikfvkQkSmJKgjpFXhTa0oeuN9RFfVyL6cr/rCWvTHx8o+ERER+R8DK2nK2s99W7UmXvL5yyh48/Z81bq501GxfgXsIRwRJyIiGk8BH1jFVADPdADv9njouNGAqj0nVY+EoX4eIqh6wqp3e6KknLuMyftPwGC3w2k2oXL1Utxc+CB3riIiIpoAQTvCKuaoeuaperd9YaCrF9cPnEbN8QuIzWZdTr1JvFSOSQdOyLaYr3r5uTVoy+V8VSIioonCKQE+Vn+uHCWb9yAkJhJFG1cgfmqGOkN6IDYCyNx7TLZ7UhJw6cV16E3gfFUiIqKJxMDqYyFR4Sh8ZjnSZk9TR0gvRFjN/uiw3Ga1PyEOVzY8LstXERER0cQK+sDq6/JV8VMnITQmQvVIL+Iqrt8KqwPRUSh75jE4WG6MiIhIEzjCOkpOh0O1gsf7r37vUy/BMwfY+6UnIqzm7Dwow6o1OhJXNj0OW3iYOktEREQTjYF1FFrKq1G6Za+cr0r6FldRjZwdBwCHE/bwUFzZ8BgGoiLVWSIiItICBtYR6G5sRcWHx9By5TqmLJ6F1Afy1BnSo1g5suoKqy6O0BBc3vgE+uOiZZ+IiIi0w9DR2elUbd3ZXFWiWkP72uEdqnXby4tWq9bw9bV24sa+00iaORVxeZPV0cDWNzCAsJAQ1Ru5TV/5S9W6LeUri1XrNvHzGOzaza/8nc9+fndLrKhG7p4jgOvut1ssKH1qGboT49VZChRjvYeJJlKw3b+bsotUiwJFV3c3oiJ989TS4HRRbd15vfy8ag1tsI0CRjvH0j5ggykkeFaN9/X1ISxs9HM5Byv+P1hgFT+Pwa4Vc2R9+fPzSLhciSy1wMoWFoKKpx9DTxK3yQ1EY72HiSZSsN2/L+TNVC0KFJ1dXYiOilK9sdH1lIDBwow/BVNYDVRJF8tvhVUxZ7V845MMq0RERBpV01mDlz95mXNY72bt6UP1obOqR4Ek+fxlTNl71D2yGhGOsk1PclMAIiIiDWnubcZbl97CN7Z/A8v+axmm/ds0fP39rwdeYB3LqGvDxaso2bwXlvBQV6bR7UwJGkTUzUZM3u/ebtUa6QqrG59AX1yM7BMREdHE2VmxE9/84Jt44OUHkPTdJDz75rP40YkfYf+1/eix9shrOMLq0lFdj7J3D6KnvhXT1j+KtDmFMBgM6izpXVhrO3K37ZVt98jqKlYDICIimiCNPY346amf4unXn0bk30di1a9X4QfHfoDzDbfXJhUnF+OP5v8Rtjy/Be3faWdgFaw9/UidlY/sFXMRFuebycGkDSGd3cjf+hGM/QNwWEwoX78cAzGss0pERDRexCipGEX9zkffwfyfzkfKP6Xgq+99Fe9cfufWCGpOXA6+OvereOMzb6DhTxtw8esX8cPVP8Qzhc8gJjSGgVVILMhEbFaa6lGgMPf3I+/tj2Du6QUMBlStWoLeZC6wIiIi8re9VXvxfw79LR79+aO3RlH/8dA/4kSte3qesCRrCf7hsX/A+a+dx9U/voqfrPsJnpv+HJIjktUVtzGwUkAy2myusLoboe2dsl+9bAHasybJNhEREfnWx9c/xt8e+Fus+MUKGP63Qb5/9+h35XGPuLA4vDDjBfzX0/+Ftu+0Yf8X9+PPHvkzzEiZoa4YGgMrBR6HE1O37UN4Y4vsNswpRtN07kpGRETkK8drjuO7h76LJ3/9JCL+LkKOpP7V3r+SI6veipKK8J3F35HhtPXPWvGbTb/BF2Z9AbGhI6vSo+uNA8L/429uFZEfqsC8PwrPB4vx3DjAQ/x/xIYBY5G96xDiL1fKdlt+FiqffFS2Kfhw4wDSM24cQFpytv4s9lTuwd7KvTKUdg10qTN3Eo/zV+SswPKc5Vic/iimZxSrM2MT0COsXfUt+JPGaPxtuHt0TQQjhtXAlnH0zK2w2pWewrBKREQ0Cufqz+GHx36IjW9sRMI/JmD2j2fjWzu/hffK3rsjrMaHxWNj0Ub82+p/w4WvX5ALpl7/zOt4ae5LyIzJVFeNXUAH1qjUBGQtm4PJC2cyqAaB+LIqpH5yQbb7Y6NRuW6ZbBMREdG9lTaV4sef/BjPvfkckv8pGbN+PAt//MEfY2vpVrT2taqr3PNQnyp4Cv+66l9x5g/OoOXPWrD5uc34xvxvYHrydHWV7wX8lAAaPV89jhrsMb/4eQ328xntlICI+iYUbN0F2OywhYWg7NnVMrRScOOUANIzTgkgfypvKce+qn3y8f7uq7tR312vztxJ1EOdmz4X8yfNx6IpizAnfY46c3+dXV2IjvJNuVAuuiLdC+nqRu62fTKsOk0mXF2/gmGViIjIy42OG/jF2V/gy+98GZn/kon8f8vH77/3+3jt/Gu3wmqYOUzOP/3b5X+LnZ/fiY4/75D1UH/5zC/lCOpIwqqv6T6wdtY04sq22yUTKLgYrVbkvrsX5t4+WWu18olH0J2apM4SEREFJ1HvVGxv+oW3vyD345/yL1Pwxbe/iJ+f+TmqO6rVVcCjmY/ir5f9NfZ9cR96/7IXu393N/7Hkv+BJ3KfQHSIdgZ/dBtYW9va5XvNsQtInj5VtinIOJ3I2XEAYS1tslvzyINoz/XdBG8iIiI9aOltweaSzXJR1MP/+bCsgyp2lPrG9m/gl2d/iSstV9SVwMOTH8ZfPPoX2PU7u9Dzlz048KUD+F9L/xeWZi1VV2iTbuew/s+//i7+OaMP37xukf1/zbTKd2+eczSx/mLXXvz948tVz038vAb7+Qx27VBm3qxDbpO71mplYgLOZnC3MiIiPVo370E8smGV6tH9tPe3Y3/VfjkHdXflbrmifygPZTyElTkrsTR7qdxZKtIyftuT+3IOq+4XXXUteVG2ow78Rr5785yj0enp6UFERITqjV7PF/4QEb/4keq5iZ/XYD+fwa4djKOkDLZ9h2TbkDUZltWPySkBRN58dQ8TTYRgu39NhfmqRXfrHOjEgWsHbtVAPVN3Bg6nQ529zWgwYlbqLFkDdXn2chlSJ/KxPhddUVBz3qi9FVaNyYkwixFZhlUiIgogB68fxF/s/gss+M8FiPm/MVj32jp878j3cOrmqVthNS0qTZaY+j8r/o98xC+2Oz310il874nvYd20dZqagzpWHGGlIflzhHW0nG0dsG5+DxgYgCEyAubPrIeBI2g0BI6wkp5xhDW4iMf8269sx/tl7+P9K++jrc+9PsNbTGiMXAy1ftp6LMtehsxYba/bCPopASKoDgcD69hoLrD2D8D65jtwdnYBZhMsG9fCkJioThJ9GgMr6RkDa+Dbf03NQ726W46oDiY/IV+Ooq7JXyNLTukJA+sggdV7pJVB1Tc0FVgdDljf+QDOunr5+N+8agWM2awIQPfGwEp6xsAaeA5XH5b78YuQeqj6EPpsferMbelR6bf24hfzUKfG67cSUtAFVhFQe7/6V6rHwDpetPRhadt9AI6yCtk2LZgD05xZsk10LwyspGcMrPon9twXj/l3VuzE1pI7tzj1SI5Ilo/3V05dKQPqtMRp6oz+cdEVBRX7mfO3wqpxWh7DKhERaZYoMbWlZAtW/nIlov9vNJ5/63n87PTPboXV2NBYPF34NH64+oc4/7XzaPjTBvz22d/ipbkvBVRY9TUGVtI0Z3Ut7Ec+kW1jWirMKx+VbSIiIi242HhR7ii16bebkPCPCZj141myLR79e4hSU3+++M9x6MuH5Er+rc9vxR/N/yPMSJmhrqD74ZQAGtJEP44Si6usv33ndkWAZzfAEB6mzhLdH6cEkJ5xSoD2iFHSYzeO4eiNo/ik9hM5J3Wwx/yiOL94zC8WSonyUlpfze8vnMPKwDouJvLD0mm3w/bWe3C2uD4IjAZYnlkLQ0qyOks0PAyspGcMrBPvRscNfHT1I7lISqziv9p6VZ25U4QlAoszF8vFUiKoLpi0QJ0JbgysDKzjYiI/LL0XWZkXL4BxZrFsE40EAyvpGQPr+LvWfg1Hqo/IkCp2lvLeg/9unnAq3h+Z8og6St4YWBlYx8VEfVg6LpTAdvCobBun5cK8colsE40UAyvpGQOrf4ntTsWjffGI/3jNcRy5cQRNPU3q7J3CzGF4ePLDci9+EVCXZi1VZ+hegiawDhZMRXBlYB0fE/Fh6WxohHXr+67U6oQhId69k5XJpM4SjQwDK+kZA6tviZ2jxKN9sRe/2JP/QsMFOF3/u5vJYJKLoeZPmn/rJfpin34amaAPrB7i/N3hlIHVd8b9w7K3DwNvbJXvhpAQmJ/bAEO0b250Ck4MrKRnDKxjt+vqLuws3ylDqtiDfyhz0+feKtb/aOajiArhd48vMLAq9tJPzy1hYPWd8f6wtO3YDUfVddk2r30cxszJsk00WgyspGcMrCMnHumLffjfu/yeLNYvCvcPZtGURfIlFkqJeaiiNir5HgOrMlhgJd8Zzw9L24d74Ki4JtvcyYp8hYGV9IyB9f7E1qZii1NR81S8xJzUu2XHZctQKh7tz8uYh4cyHlJnyN8YWBUGVv8alw9L1+1n++gAHOXuUiGm2TNhWsgPE/INBlbSMwbWwe2/tl/OQRWP+cVK/sGIxVGiBqp4zUyZqY7SeGNgVRhY/Ws8Pixt+w/DcemybBuLC2Beuki2iXyBgZX0jIHVTYygisVSYgRVFOoXo6p3mxIzRc4/fTL3SaydtpaP+DWCgVVhYPUvf39Y2o+fgv3kWdk25k2F+bElrjvSIPtEvsDASnoWrIH1WM0x7K/aj92Vu3Hw2kH02nrlcW9pUWlYnr38Vh3UvIQ8dYa0hIFVYWD1L39+WHrXWjVkTYZl1WNyRysiX2JgJT0Llvv3TNsl7K47ggM9F+Tj/sEWSiWEJ7hX8auQWpzMzWT0gIFVYWD1L399WIqgKgKrYJicAcv6J2WbyNcYWEnPAvn+3X5zHz6o3Y+3a3ahtrdBHb1NPNL3FOkXj/pnpXIhrh4xsCoMrP7ljw9L2679txZYGVKSYdmwCjCbZZ/I1xhYSc8C6f4t6ajAvoaj+ODmAeypP4Je+53zUCNN4Xg0Z6kMqGIEVazmJ/1jYFUYWP3Llx+WTrsddlFntbpG9o1TJsG8aqUrrHIXK/IfBlbSMz3fvxVd17HXFVD31R/F/oZjuNnXqM7clh+VjbUZy+VrccpDCCsqUmcoUDCwKgys/uWzD0urFdZtu+Csq5ddw9QsmB9fBoOR29yRfzGwkp7p7f7dXX8Y22r34P3avbjaVa2O3ml56sNYnb7M9VqKophcddTNFxsHkLYwsCoMrP7lkw/L/n5Y394BZ0ur7BoL8mBevth153GBFfkfAyvpmdbv37q+RnxUfwjv3PgIH948iG77p1fzx1tisSpjCZ6e9DgeT1uMGMvQ4YWBNfAwsCoMrP411g9Lp9UG25vvwNneIfumB2fC9DA3BaDxw8BKeqa1+7exv0U+5j/QcBx76g+jrLNKnbnTgsTZWJm6EKvSl2JR0hx19P4YWAMPA6vCwOpfY/mwdDY2w7bjIzi7e2TfNH8OTHO5ypPGFwMr6dlE379t1g7sVXNQ97leF9rL1Jk7zU2YgRUpC7E0ZQEeTZknF1CNBgNr4GFgVRhY/Wu0H5aOsquw7d6veoB55RIYp905V4loPDCwkp5NxP17tPk03rr+gQyooj7qYGbHFbvC6Xw5H1WE1GhzpDozNgysgYeBVWFg9a8Rf1g6nLAfOQH7uYuya4iMgHn1YzAkJ8o+0XhjYCU98/f9e6TpFE60nMfx5rM43nJ2yIVSYnHUytRFWOIKqctSHkZCiH+2PWVgDTwMrAoDq3+N6MNyYABWMQWgVlUCSEmGeY0rrIaHyT7RRGBgJT3z9f17racG797YLVfxH2g8jgGHVZ2507TobBlMl6U+jOWu9+TQBHXGvxhYAw8Dq8LA6l/D/bB01DfCvmsfnJ3u7fSM0wthXrJQtokmEgMr6Zkv7t+DjSdkqakdtQdwqWPw78zcqEwsTV6AlWmL5KP+tLBkdWZ8MbAGHgZWhYHVv4bzYSlCqvXNd2X5KsG89BEYi6fJNtFEY2AlPRvN/dtqbcf2mn1yFHVn3UG0WzvVmdvSXYF0eepC+ZhfvCZHpKkzE4uBNfAwsCoMrP513w/LgQHYtrwPR2ub7JpXLoVx2lTZJtICBlbSs+Hev6daL6C04yp+XP4aDjedUkdvE4/0xaN9EVLFIinxyF+LGFgDDwOrwsDqX/f8sHQ4YX1vJ5y1N2XXOOcBmBfMlW0irWBgJT0b7P4VW552WDuxr+G43JtfPPLvsLqnY3l7KGGm3PJ0TfoyWXZKDxhYAw8Dq8LA6l/3+rK3HTwKx4US2TbmTYX58aWyTaQlDKykZ+L+vW6rk8FUlJkS70397l0D7xZricaylAXYMPlxue3peC2U8iUG1sDDwKowsPrXUF/2jpIy2PYdkm1DeiosT61ypVaj7BNpCQMr6UmfvR+ftJ7HiebzONx0EocaTqJhoFmdvZOoffpo8jy1kn8BHoyfrs7oFwNr4GFgVRhY/WuwL3tH7U3Y3tsppwQY4mNh2bgOCAlRZ4m0hYGVtEo8xher9vvtA3i7ZhcONnwyZKF+oTgmDw8mTMfc+BlYmPgg5iU+oM4EDgbWwMPAqjCw+tfdX/bOquuw7toH2OxAaCgszz4FQ7RvbkQif2BgpYnWbe/FxfYyXGy7gpKOcpwXbdertrdBXfFpojC/2I9/XuxMLEydg4eTHvTZblJaxsAaeHwaWDs6OzUbWFNe+75q3dbw2W+plktZhWqQP/T09SEizF3431BVDeeeg7INkwmGtY/DmaS/OVIUXLzvYSJ/O9N+yRVKK1DadRUXO1wBtbMC1b3uhalDibPEYEZMPh6Kn4nZscV4KG4GMiMy5Lmgu3+5hXfA6eruRlSkb/6yxRFWGpJndMpx9Zp7YwCHAwgNgWXDKhgSud0qaR9HWMkfzrWVymBa0i5GTC/jYvsVlHddU2cHF2OJwozYaZgem+96ud5dIbU4Lg+poUnqik8LtvuXI6yBh1MCFAZW/xIfluG19bDu3i/nrMqw+vRaGBLi1BVE2sbASmMhapuWdlbgfJs7lIpH+SKo3kuEKRzT41yh1BVIZTCNzUOxqz2a4vwMrKR3DKwKA6t/9Zy7CPPhE4DrFjGEhcK8YQ3DKukKAysNhxgdLXUF0XOuYHpJBNOOKzKk3o9YmV/sCqRy1FSMmLrecyInq7Njx8BKesfAqjCw+o/jUhn69hyAWcxXjQh3h9W4GHWWSB8YWMnbtZ4alLS7gml7KS61lctgKoJqr71PXTG4B+IKURg9FTPiCm4F1Pwo/+8WxcBKesfAqjCw+oezrgHWre/DZrfDEh0N89OrYYhlWCX9YWANXseaz7heZ3GhrQwX2stkCakuW486OzixZWlRTJ4MqKKMlHi0Lx7nTxQGVtI7BlaFgdX3nN09sL35Dpy9fbCbTQh7fiMMMb652YjGGwNrcBCLoM66XidcAfWTlgs43nJWnRmc2AVKlI0SI6WeYDo7rlid1Q4GVtI7BlaFgdW3nHY77Fu2wdHU4rozDLA9tgQReVPVWSL9YWANLFe7quXjfBFQL7WXy8f5YvT0XiJN4ZifNAvz4h/Aw0mzMSd+xqgWQE0EBlbSOwZWhYHVt2y79sNRflW2TY/MR39eDr/sSdcYWPWr3dp567H+ieZzONFyDo39rr9MDyHUGIKCmKmydJRY/DRDjp7mIydqMgyu/+kRAyvpHQOrwsDqO/YzF2A/ckK2jXlTYX58Kb/sSfd4D2ubWJ1/rbtGjpxe676BSterrq8J4mvpdOtFdNq61ZV3EqG0MCZXLoByL4jKdfUD72kQAyvpHQOrwsDqG84btbBu+1CWrzImJcC0cR0MJhO/7En3eA9PLBFAZRDtuoHrPbXyvcrVr+q5gRs9deqqe8uLypL75s9PmIX5rncx9zRYMLCS3jGwKgysY+fs6ITtzXfhHBiAITwM5uc2wKA+IPllT3rHe9j/Oqxdch6peHlqmVZ1V7teNeqK+0sPS0Z21BRkR07CVNd7lus9O3Iy5sbPQKwlWl0VfBhYSe8YWBUG1rFxWq2wbX4PztZ22TdvWgdjSrJsC/yyJ73jPew7PfZeGUovtl2RJaIuiQVPrnBa01uvrrg3UWQ/LzoL2RHuMCqCaaYrmBZE56gr6G4MrKR3DKwKA+sYuH7sth0fwXHthuyaVzwKY0GebHvwy570jvfwyLQMtMvRUfej+xp023rQbe/B5uoPhj1iOjOuAEXRuXJb0plxYq5pnqxvSiPHwEp6x8CqMLCOnu3YSThOnZNt44wimB99WLa98cue9I73sFu3vdcVQsXCJvcCp/q+RtT2NshV9w39zWjsc7/32fvV/+PeoswRcpQ0NyoTs+KKUBTjCqiucCpqmpLvMLCS3jGwKgyso+OsvA7rB7tl25CeAstTa1yp9dNlX/hlT3oXLPewCJruBU41rvdqXO+uxVXXu+iLRU5N/a3qyuEJN4XJ+aQilIqXe07pJORETkF21GQkhsSpK8mfGFhJ7xhYFQbWkXO0tMp5q7DZYYiKhPnZDTCEhaqzd2JgJb0LpHu4ouu63AtfPK4XK+9lKSi58r4adX2N6qrhE3vhi/DpHUynugJpZlQGUkOT1FU0kRhYSe8YWBUG1pFx9vW7t13t6gbMJpg3rYcxIV6d/TQGVtI7Pd3DIozKEVIZSN0jpWLeaJWrX917U111f5kRGXJENEeF0JSwRLkVaWp4EpJCEmQ/ISRWXU1axsBKesfAqjCwjoDDCeu72+G82SC7llUrYcjJlO2hMLCS3k30PSx2axJzQ5vkHFHXq69Zzhu1OWzy/M2+BnxUd0g+zh8uUQIqR5V+kivtI1zhVIyURrhX3lPgYGAlvWNgVRhYh89+6Djs5y7KtmnuLJjmz5Hte2FgJb3z5z3sWVEvRkE9j+lF272YqXnY5Z7ulhQaLwOpfEzPElBBjYGV9I6BVWFgHR5HfSNsW7bJtiFrCixrHpPt+2FgJb0bzT3sWVEvXiKAivmhN10hVK6m728Z8Yr6u8VZYtScUTVCKueQuh/hi6AaYQpXV1KwY2AlvWNgVRhYh8FqhfWNt+Hs7JKLrCzPPw2EhKiT98bASno32D0sgqacGypHRN2vWyvsXSG1eaBNXTkyk8JTkRyaKOeIpsj3BCS5XqKdEZ6C1LAkuco+xuKbD28KfAyspHcMrAoD6/3Zdu6B4+o110/aAPPGtXfsZHU/DKykd0dunkTFQDVK2itwvu0yLrZfkYubRkrsZ39rIZN8XD8JWREZtwJpMG8fSv7DwEp6x8CqMLDem+NSGWz7D8m2ac4DMC2YK9vDxcBKenGurRQlHRVyy9ALbWUymJZ3uf6iNkxZYq7oXSWexEImEVKnhKerq4jGFwMr6R0Dq8LAOjRnSxusb73r+k2yw5iUANOm9TAYjers8DCwklbc6KmTj+xlMXxZi/R2yafhjpiK+aLFMflyu1AxVzQn4vZKeyItYmAlvWNgVRhYh+AKqXLeansHYDbD8sIzMESP/IZhYKXxUt/fJMOnXHEv5pV6AqmrPZKRUlFv1D1S6i6CnxM2GQ8mTcf02HyEmQbfIINIqxhYSe8YWBUG1sHZ9h2Co6RMts0rHoWxYHT7ezOwkq8MVgJKBlP5qkGvvU9deW/xllj3XFJXKJUr7CPcI6RZkRlyQZPYUtQb72HSMwZW0jsGVoWB9dPEAiux0Eow5mbB/MQK2R4NftnTSIlger6tFBfar7jnk7aX4VJbOVqt7eqK4RG1SMXj+xmx+Sh2vcQI6Yy4aTKwjgTvYdIzBlbSOwZWhYH1TmLLVevrW2UpK1nC6oVnAItFnR05ftnTUDqsXTKMykDqCqelHVcx4LDiQONxdcW9iZFQ7wVOnkVO7mNTfLZ1KO9h0jMGVtI7BlaFgfVO1q3b4axz765jfnotjOkpsj1a/LInQdQtPdlyAcdbzuFo82lX+7x8jD8cD8QVYkbsNDlK6i6M7155nxqapK7wL97DpGcMrKR3DKwKA+tt9pNnYT9+SrZNc2bBtOD+W6/eD7/sg8/1nlqUtJfjfLsoDSVe5TjVekGdHdrMuAIUReeiOC4fM2MLUBiTq4ltRHkPk54xsJLeMbAqDKxujgax9er7gOtHOdoSVoPhl33gEtuNXuoolzVL2wY6cKatBHvqD6PL1qOuGFx+VDaKY/PkyKl4FcTkyLmmWsV7mPSMgZX0joFVYWB1sdlg/c0WOX91LCWsBsMve32r7r0pS0XdWo2v2mLHpzZrh7pqcGIu6fTYaZjpehXF5MmQ+mD8dHVWP3gPk54xsJLeBWxgFQHVO5AysN6fbfdBOMrKZdu8fDGMPvwDzy97bROjpHL/e1UaStQu9YTTiq7r6qp7E7s4uR/jT5OP8afH5GO6qx9hCldX6BvvYdIzBlbSOwZWJdgDq6PiGmwf+qaE1WD4ZT+xmgfaVDF9FUhd75VipyfZHn7tUiEtLFmWhhLzS4ti81ztPMxwtaPMgf3z5T1MesbASnrHwKoEc2C9o4RVZAQsL24cUwmrwfDLfnyIuaSiNNSl9nKcbSuRo6MinN5vPundYixRt0pEiV2e8qKzZO1SEVJjLdHqquDCe5j0jIGV9C7gAutQwZSBdWi27R/Bca1ats0b1sCYkSrbvsQve9/osfe6R0fV1qOeXZ5EMD3XVqquuj/xmP527VLXu9gP36tU1EiL6gcD3sOkZwyspHdBE1g97h559QjWwGo7dByOcxdl2zR3Fkzzx17CajD8sh++y52V7iDqeYTf436ELx7pN/a3qKvuT6zCd++F7w6mOSKURrgDaUpYorqKhov3MOkZAyvpHQOrEoyB1Xn1Gqxq61XD5AxY1j3hahhk39f4ZX8nsbpe7Ox0ueMqKrrFY3v3QqebfY3qivvz7OQk3sXe97dGTF0hdVK470fJgx3vYdIzBlbSOwZWJdgCq7O1HbbN78JptcnSVebnNsAQEqLO+l6wftl7zykVj+xLXH0xgjocInSK0VAxMirmkWZGZKgtR93hlMYXAyvpGQMr6V3QBdahBFNgdVqtsP3WFVY7OmAwmWD+zHoYEuLVWf8I9A/LK11VMpSK14V2MXp6Re7uNBxZEaJOab7c4UmUg5rhauuxTmmgY2AlPWNgJb1jYFWCJrC6fkS2HbtvL7JauRTGaVNl258C4cOyvr9JloG62lUtH+GL0dKLbVdQ2lkh98i/l1lxRciNysTUqCnIlI/w3SvwxUhpuClMXUVaxsBKesbASnrHwKoES2C1nzwL+/FTsm2aXgjTkoWy7W96+rA803ZJjZZewUVXKC3vrJIBdTi1SmeoovliNycRUguip7r6/v8LAfkfAyvpGQMr6R0DqxIMgdVRXQPbtg9l25iaDPPGdbI9HrT4YXmp4woud1TibGuJK5i6H+GXucLpcORFZcnH+KI2qdj/vsgVUsV++BS4GFhJzxhYSe8YWJVAD6zO7h5Y33gb6O+HISwU5uefhmEcP7wm4sNS1Cyt7KrGtZ5a+RjfUypKrMoXq/SHQ8wvdYfSPLnNqHifEz9DnaVgwsBKesbASnrHwKoEemC1bt4GZ4O7ZJLlqVUwTEqX7fHirw9LsdjJM69U7oXveq/vb4a4FU+1Xhj2Dk9ixHRqVKbcZlSMmIpwKh7vB8o++DR2DKykZwyspHcTFlhFsBxOkBwpBtZPsx86Drtnc4B5D8L00GzZHk8j/bBs6m9Fgyt4tgy0we6wy2Picf3HTZ/cKqJf01svjw+XZxW+GCUV5aFyIqbIslGTI9LUFURDY2AlPWNgJb1jYFUCNbA6q67DumO3bBsy0mF56klXwz+bA9zLYB+WDX3N2FX3sbtofo9nZyf3CvzRmhKefmt3J1FMvzDWXSZKjJoSjQUDK+kZAyvpHQOrEoiB1dnRBetv3wasVhgiwmF54RkgNFSd9S8RRuUjelcQFSOiFe3XcKO/Xu7mNNzC+XcT+9s/mjIPKaEJSAtLRkJonNxiNN3VnhyRLstGEfkLAyvpGQMr6R0DqxJwgdXhgG3zNjiammEwGmHesBqGtBR1cuxare3ysbwYDa10BdI79r53HRMLnkZChFHPyKioVZoWluIOpuHJSAqNd70SuN0oTSgGVtIzBlbSOwZWJdACq+3AYTguulfCmxY+BNPsmbI9XGKxkjt8uoOoHC1Vj+vFe4e1S115b5GmcFcQnYL00GSkRyQjwxU640NikewKoBnhKUgNS5Jbj0abI9X/g0ibGFhJzxhYSe80F1g7FzyB6GPuWqGjwcAKOKtrYd22U7YNWVNgWfOYbN+t294ra4+K3Zoud16VI6XucHoDzQNt6qr7K4jOQVbkZLXPvesV4d7/XixoEsFU4Jc96R3vYdIzBlbSOwZWJVACq6O+AbZ3PwBsdhhiomB+dgMMISE43XpR7m9f0l6O8+2X5U5O13qGt7hJPKIX4VOsqr+9oGmyDKlilHQ4+GVPesd7mPSMgZX0joFV0XNgbexvka+m5hsY2H8IsNpQGt6OPZO7cKm7EuVd19SV9ya2EC2MzsUD8YXuQvmx0+QOTr7AL3vSO97DpGcMrKR3DKyKlgNrbW+De1GTnFNaIxc7Vfa4C+WLgvnDJeaTzogrkCOmnhFSMVoqHuP7e4U9v+xJ73gPk54xsJLejXtgHSpQiqB6t9EEVz0GVjE66tmlqarHFUjVXFJRk3S4e9t7S7HEIycmC9Ois1Ecmy/3vBcvsc3oROGXPekd72HSMwZW0jufBtaOzs77BtaU176vWrc1fPZbwMqNqudl9xbVGL4hf/37KatQDd9rs3bI+aJiT/trverdFVCre2/KgDrSElBxlhgZPrMiMpAdnoGsqx3Iarcg0x6LrGVrEZ41VV2pHT19fYgIC1M9Iv3hPUx6FnT37zTfTGcj7ejq7kZUpG8qCgXtCKsInHJ0VD2i95SAutZdK9/brZ3qyuERJZ7kIqeoKfKRvWhPjRRtsRLfqwSUwwnrjl1wXncvnjIvfwTGwmmyrTUcnSK94z1MesYRVtI73U8JuHvOq78Cq9idyVMc/3pPLa7KmqSiXy33vR8u8ZheloByvTJdQVSUfRIF8sWOTaI4vngfbk1S28GjcFwokW3TQ7NhmvegbGsRv+xJ73gPk54xsJLeBX1grWqrQnVHNWpKT6FBrLbva3a9N8t5pXV9TTKkikVPIyG2DZ0ROw3Fse6V9sUxuSMqATUctt0H4Sgrl21jcQHMSxfJtlbxy570jvcw6RkDK+ldUATWVx+dgYbuBjT2NMqAKl6VrZWobKtUV4xcppg/6gqhcpW9KpgvVt+LoCrmmPqN67fYtv8wHCVlsmvMmwrzY0tcv/sG2dcqftmT3vEeJj1jYCW982lg/enhV+4IrDVdN3C64TSiw6IQGRqJHmsP3mzMU2dvWxCyB++9HKJ6txU+fxHdA91o729XRz6tY/vjiFmzS/WAsPT/rVq39d38X6o1PCJwpoQlIDUsGVMi0uUOTp55pJkR7r3uJ4pt36FbYdWQNRmWVY+5Uqu2w6rAL3vSO97DpGcMrKR3Pg2sD39/8R2BtbTnItpsd87vHCpQiuB5N+8gencw9RhOYDU3/xNSIlOQFpWGxPDE2+0Idzs1MhUJDT1IDk306WN7X7MdOAzHxcuybUhPheWpVa6wapR9reOXPekd72HSMwZW0jufBtav//aP7gisVzsqcKH1PBIjExAXHiePHRtYId+9vZhahR/8/Q3Vu+17/3h7Xua3/+zwHX0PcfyVH6xBZEgkIi2R+MoR97xOb75YdDXR7giryYkwb1gDg8Us+3rAL3vSO97DpGcMrKR3upnDevdcVY+xLrry0HJgtZ84DfsnZ2TbkOgKq0+vgiHk01MotIxf9qR3vIdJzxhYSe98GVj98mxaBFJPmPVuBwv7gSO3wqoxPg7m9U/oLqwSERERacWYAqsYJfWMlHq3g5XT4YB15x7YL5bKvjE1CeZN62AI5047RERERKOlj9U/OuC022Hf/hGcV6/JviEjHean1gAWi+wTERER0eiMa2AN2KkCNhts7+6Eo9q93aohawos613/bWaT7BMRERHR6PklsAbTVAFnXz9sb2+Hs65e9o1F02BZI+qscvCaiIiIyBeYqsbA2dMrw6qjsVn2jQ9Mh3nZI7JNRERERL7hk8AajIutZFh9ZzucrW2yb5ozC+ZH5ss2EREREfkOR1hHwdndA9vW9+Fs65B907wHYVowR7aJiIiIyLcYWEfI2dnlDqsdnbJvWvgQTA/Nlm0iIiIi8j0G1hEQIVWGVVdoFcyPPgzT7JmyTURERET+Ma6BdajqAWIbVs9WrN5tLXF2dLirAXT3yL55yUIYZxTJNhERERH5D0dYh6N/ALZtu26H1WWPwDi9ULaJiIiIyL8YWO9HbLe67UM4228vsBK1VomIiIhofDCw3ovTCduufXA2NMqusXAaF1gRERERjbMJCax6qdtqP/IJHFevybYxOxPmZYtkm4iIiIjGD0dYh+C4VAb72QuybUhPgfnJ5a6GQfaJiIiIaPwwsA7CUXYVtv2HZNuQmADLmsddv1P8rSIiIiKaCExhd3FcLIVt937ZNsREwbzuCSAkRPaJiIiIaPwxsHpxlJTBduCIbBsiI2Be/yQMEeGyT0REREQTw6+BdaSLqyZywwD3NIDDsi3D6tNrYYiJkX0iIiIimjgcYXWRYXXPAVnGyh1WV8vpAEREREQ08YI+sDquVt0Oq+FhKqxyZJWIiIhIK4I6sDpv1MK2c+/tsLphDcMqERERkcYMGljD/+NvVCtwOa5chfW9ne5OaAjMT62CIT7W3SciIiIizQjKEVZZuuojVbpKjKyKsJoQL/tEREREpC1BF1jtJ8/eLl0VFQnzxvUwJiXKPhERERFpzx2BVUwF8EwH8G4HCtvBo7AfPyXbYq6qedM6VgMgIiIi0jiD00W1Bw2oE1kb9X7spVdU6z5c/4m2vR/DcblcdsXjf8vTq4HQUNmnwfX09CAiIkL1iPSH9zDpWbDdv6bCfNWiQNHZ1YXoKN8MDAb8lABnZxesb7x9O6ymp8KycS3DKhEREZFOBHRgdTQ0wvbWu3C2tsm+ccokud0qLBbZJyIiIiLtC9jA6iyvhG3rDjj7+mXf+EAxzGsfh8Fkkn0iIiIi0oeADKz2E6dh3bUPcNhd/4UGmJc+AvMjCwCDQV1BRERERHoRWIHV4YB15x7YPzkjuwaLRU4BMBZPk30iIiIi0p+ACazO3j5Yd3wE59Vrsi9rrG5aB2NGuuwTERERkT4FRGB1NjbD9uY7cF6vkX1jSjLMz26AIT5O9omIiIhIv3QfWB1l5bBueR/O7h7ZN07Lg/mZNTCEsWwVERERUSDQb2B1OGH7+Bhsuw+qxVVGmJcshHnlo7JNRERERIHBqNctWAd+/ioc5y/JtiE8DOYNq2GcXij7RERERBQ47hiKFNuwerZi9W5ribO2Dv3//CM4qqpl35iUIOerGtNSZJ+IiIiIAouunp3bj51E/8s/h7O9Q/aNhfnuxVWR3CuciIiIKFDpI7BarbC+vhXWbR/KriEkBJbnn4Z5+WLZJyIiIqLApfnA6mhsQv+PXoH9YqnsGyZnIOQbvwfTjCLZJyIiIqLApt3AKjYC2LINAz/8KZzNrfKQedkjCH3pCzDEx8o+EREREQU+TQZW+7lL6P/BT2A/fV72DdFRCPm934F55RLZJyIiIqLgoanA6uzoxMAv34BV7Frl2QggazJCvvq78p2IiIiIgo9mAqv95FkM/OAncFy5KvtiVNXy7AY5smqI4xQAIiIiomA1oYHVca0a1re3o+/v/1W+Owes8rh50TyEfvMlmB4oln0iIiIiCl6GsJ/8b6doNHz2W/KAkPLa9+/o+0R7B5yNzTC2tgFt7cDFy7ce+98yZRKw9nEgMV4duI+yCtUgf+jp60NEWJjqEekP72HSs6C7f6flqgYFiq7ubkRFRqre2NwKrN67WomtWkezy5Wzrx/Ollagvx+wO2A/XwJnQyMcDU3AwIC66i7h4TDNLJIvY3amOjg89tIrqkX+0NPTg4gIbspA+sV7mPQs2O5fU2G+alGg6OzqQnRUlOqNzbADq7OpRe4w5ezsdP0p6oWz/3YAdZRVuM43y8A6LGGhso6qeBlzs9XBkWNg9S9+2ZPe8R4mPWNgJb3zaWC1X62SgdVb5K5foLPwMTgbmuTLcbNenRkhixnG1GQYkpNgSEmCMS3V1U6EITZGXTA2DKz+xS970jvew6RnDKykdz4NrL3/4+8/FVjvyWIBQiwweN7FKywciIuRBf0NcXEwJLheca52lG/mLQyFgdW/+GVPesd7mPSMgZX0blwCqyExHsbUFBjkCGkijGKUNC1FndUGBlb/4pc96R3vYdIzBlbSO58GVqeLausOA6t/8cue9I73MOkZAyvpnS8Dqya3ZiUiIiIi8tBtYBWVCYiIiEj/jBqbckjao+spAeRfvhzKJ5oIvIdJz3j/kt5xSgARERERBQ0GViIiIiLSNAZWIiIiItI0BlYiIiIi0jQGViIiIiLSNAZWIiIiItI0BlYiIiIi0jQGViIiIiLSNAZWIiIiItI0BlYiIiIi0jQGViIiIiLSNAZWIiIiItI0BlYiIiIi0jQGViIiIiLSNAZWIiIiItI0BlYiIiIi0jQGViIiIiLSNAZWIiIiItI0BlYiIiIi0jQGViIiIiLSNAZWIiIiItI0BlYiIiIi0jQGViIiIiLSNAZWIiIiItI0BlYiIiIi0jQGViIiIiLSNAZWIiIiItI0BlYiIiIi0jQGViIiIiLSNAZWIiIiItI0BlYiIiIi0jQGViIiIiLSNAZWIiIiItI0BlYiIiIi0jDg/wePvZcIj3nLtQAAAABJRU5ErkJggg==;" vertex="1" parent="1">
          <mxGeometry x="40" width="684" height="523" as="geometry" />
        </mxCell>
      </root>
    </mxGraphModel>
  </diagram>
</mxfile>
